<svg width="1118" height="131" viewBox="0 0 1118 131" fill="none" xmlns="http://www.w3.org/2000/svg">
<path opacity="0.2" d="M10.1448 128H11.3048V125.21H12.4148C14.0148 125.21 15.1848 124.47 15.1848 122.86C15.1848 121.2 14.0148 120.63 12.3748 120.63H10.1448V128ZM11.3048 124.28V121.57H12.2648C13.4348 121.57 14.0448 121.89 14.0448 122.86C14.0448 123.83 13.4848 124.28 12.3048 124.28H11.3048ZM16.6194 128H20.8994V127.02H17.7794V120.63H16.6194V128ZM23.6056 124C23.8456 123.2 24.0756 122.39 24.2856 121.55H24.3356C24.5556 122.38 24.7756 123.2 25.0256 124L25.3156 124.99H23.3056L23.6056 124ZM21.2256 128H22.4056L23.0356 125.9H25.5956L26.2156 128H27.4456L25.0056 120.63H23.6656L21.2256 128ZM29.2327 128H30.3927V121.61H32.5627V120.63H27.0727V121.61H29.2327V128ZM33.8362 128H34.9962V124.83H37.7162V123.86H34.9962V121.61H38.1962V120.63H33.8362V128ZM42.1929 128.13C44.0829 128.13 45.4029 126.66 45.4029 124.29C45.4029 121.92 44.0829 120.5 42.1929 120.5C40.3029 120.5 38.9929 121.92 38.9929 124.29C38.9929 126.66 40.3029 128.13 42.1929 128.13ZM42.1929 127.12C40.9729 127.12 40.1829 126.01 40.1829 124.29C40.1829 122.56 40.9729 121.51 42.1929 121.51C43.4129 121.51 44.2129 122.56 44.2129 124.29C44.2129 126.01 43.4129 127.12 42.1929 127.12ZM46.9319 128H48.0919V125.03H49.2819L50.9519 128H52.2619L50.4619 124.88C51.3919 124.59 52.0019 123.91 52.0019 122.77C52.0019 121.18 50.8619 120.63 49.3419 120.63H46.9319V128ZM48.0919 124.1V121.57H49.2019C50.2719 121.57 50.8519 121.88 50.8519 122.77C50.8519 123.66 50.2719 124.1 49.2019 124.1H48.0919ZM53.4944 128H54.5344V124.36C54.5344 123.7 54.4444 122.75 54.3944 122.08H54.4344L55.0144 123.78L56.3044 127.29H57.0244L58.3044 123.78L58.8944 122.08H58.9344C58.8744 122.75 58.7844 123.7 58.7844 124.36V128H59.8644V120.63H58.5244L57.1944 124.36C57.0244 124.85 56.8844 125.35 56.7144 125.84H56.6644C56.4944 125.35 56.3444 124.85 56.1744 124.36L54.8244 120.63H53.4944V128Z" fill="#0D1731"/>
<path opacity="0.2" d="M214.158 128H215.318V125.03H216.508L218.178 128H219.488L217.688 124.88C218.618 124.59 219.228 123.91 219.228 122.77C219.228 121.18 218.088 120.63 216.568 120.63H214.158V128ZM215.318 124.1V121.57H216.428C217.498 121.57 218.078 121.88 218.078 122.77C218.078 123.66 217.498 124.1 216.428 124.1H215.318ZM220.721 128H225.181V127.02H221.881V124.64H224.581V123.66H221.881V121.61H225.071V120.63H220.721V128ZM228.817 128.13C230.427 128.13 231.407 127.17 231.407 125.99C231.407 124.91 230.777 124.37 229.907 124L228.897 123.57C228.297 123.33 227.707 123.09 227.707 122.45C227.707 121.87 228.197 121.51 228.947 121.51C229.597 121.51 230.107 121.76 230.567 122.17L231.177 121.43C230.617 120.86 229.807 120.5 228.947 120.5C227.547 120.5 226.527 121.37 226.527 122.53C226.527 123.6 227.317 124.16 228.027 124.46L229.047 124.9C229.727 125.2 230.227 125.41 230.227 126.08C230.227 126.7 229.727 127.12 228.837 127.12C228.127 127.12 227.407 126.78 226.877 126.25L226.197 127.05C226.867 127.73 227.807 128.13 228.817 128.13ZM235.601 128.13C237.491 128.13 238.811 126.66 238.811 124.29C238.811 121.92 237.491 120.5 235.601 120.5C233.711 120.5 232.401 121.92 232.401 124.29C232.401 126.66 233.711 128.13 235.601 128.13ZM235.601 127.12C234.381 127.12 233.591 126.01 233.591 124.29C233.591 122.56 234.381 121.51 235.601 121.51C236.821 121.51 237.621 122.56 237.621 124.29C237.621 126.01 236.821 127.12 235.601 127.12ZM243.04 128.13C244.67 128.13 245.77 127.24 245.77 124.84V120.63H244.65V124.92C244.65 126.58 243.97 127.12 243.04 127.12C242.12 127.12 241.46 126.58 241.46 124.92V120.63H240.3V124.84C240.3 127.24 241.41 128.13 243.04 128.13ZM247.674 128H248.834V125.03H250.024L251.694 128H253.004L251.204 124.88C252.134 124.59 252.744 123.91 252.744 122.77C252.744 121.18 251.604 120.63 250.084 120.63H247.674V128ZM248.834 124.1V121.57H249.944C251.014 121.57 251.594 121.88 251.594 122.77C251.594 123.66 251.014 124.1 249.944 124.1H248.834ZM257.107 128.13C258.057 128.13 258.807 127.75 259.397 127.07L258.777 126.34C258.337 126.82 257.827 127.12 257.147 127.12C255.847 127.12 255.027 126.05 255.027 124.3C255.027 122.57 255.907 121.51 257.177 121.51C257.777 121.51 258.237 121.78 258.617 122.17L259.247 121.43C258.797 120.94 258.077 120.5 257.157 120.5C255.297 120.5 253.837 121.94 253.837 124.34C253.837 126.75 255.257 128.13 257.107 128.13ZM260.701 128H265.161V127.02H261.861V124.64H264.561V123.66H261.861V121.61H265.051V120.63H260.701V128ZM268.798 128.13C270.408 128.13 271.388 127.17 271.388 125.99C271.388 124.91 270.758 124.37 269.888 124L268.878 123.57C268.278 123.33 267.688 123.09 267.688 122.45C267.688 121.87 268.178 121.51 268.928 121.51C269.578 121.51 270.088 121.76 270.548 122.17L271.158 121.43C270.598 120.86 269.788 120.5 268.928 120.5C267.528 120.5 266.508 121.37 266.508 122.53C266.508 123.6 267.298 124.16 268.008 124.46L269.028 124.9C269.708 125.2 270.208 125.41 270.208 126.08C270.208 126.7 269.708 127.12 268.818 127.12C268.108 127.12 267.388 126.78 266.858 126.25L266.178 127.05C266.848 127.73 267.788 128.13 268.798 128.13Z" fill="#0D1731"/>
<path opacity="0.2" d="M441.795 124C442.035 123.2 442.265 122.39 442.475 121.55H442.525C442.745 122.38 442.965 123.2 443.215 124L443.505 124.99H441.495L441.795 124ZM439.415 128H440.595L441.225 125.9H443.785L444.405 128H445.635L443.195 120.63H441.855L439.415 128ZM446.606 128H447.766V125.21H448.876C450.476 125.21 451.646 124.47 451.646 122.86C451.646 121.2 450.476 120.63 448.836 120.63H446.606V128ZM447.766 124.28V121.57H448.726C449.896 121.57 450.506 121.89 450.506 122.86C450.506 123.83 449.946 124.28 448.766 124.28H447.766ZM453.08 128H454.24V125.21H455.35C456.95 125.21 458.12 124.47 458.12 122.86C458.12 121.2 456.95 120.63 455.31 120.63H453.08V128ZM454.24 124.28V121.57H455.2C456.37 121.57 456.98 121.89 456.98 122.86C456.98 123.83 456.42 124.28 455.24 124.28H454.24Z" fill="#0D1731"/>
<path opacity="0.2" d="M630.105 128H631.145V124.36C631.145 123.7 631.055 122.75 631.005 122.08H631.045L631.625 123.78L632.915 127.29H633.635L634.915 123.78L635.505 122.08H635.545C635.485 122.75 635.395 123.7 635.395 124.36V128H636.475V120.63H635.135L633.805 124.36C633.635 124.85 633.495 125.35 633.325 125.84H633.275C633.105 125.35 632.955 124.85 632.785 124.36L631.435 120.63H630.105V128ZM639.816 124C640.056 123.2 640.286 122.39 640.496 121.55H640.546C640.766 122.38 640.986 123.2 641.236 124L641.526 124.99H639.516L639.816 124ZM637.436 128H638.616L639.246 125.9H641.806L642.426 128H643.656L641.216 120.63H639.876L637.436 128ZM644.626 128H645.726V124.53C645.726 123.73 645.636 122.88 645.576 122.12H645.626L646.396 123.66L648.836 128H650.026V120.63H648.926V124.07C648.926 124.87 649.016 125.76 649.076 126.52H649.026L648.256 124.96L645.816 120.63H644.626V128ZM653.38 124C653.62 123.2 653.85 122.39 654.06 121.55H654.11C654.33 122.38 654.55 123.2 654.8 124L655.09 124.99H653.08L653.38 124ZM651 128H652.18L652.81 125.9H655.37L655.99 128H657.22L654.78 120.63H653.44L651 128ZM661.083 128.13C662.093 128.13 662.923 127.76 663.413 127.27V124.08H660.903V125.03H662.363V126.76C662.103 126.99 661.653 127.12 661.203 127.12C659.683 127.12 658.873 126.05 658.873 124.3C658.873 122.57 659.783 121.51 661.153 121.51C661.863 121.51 662.313 121.8 662.683 122.17L663.303 121.43C662.853 120.96 662.153 120.5 661.113 120.5C659.163 120.5 657.683 121.94 657.683 124.34C657.683 126.75 659.123 128.13 661.083 128.13ZM665.095 128H669.555V127.02H666.255V124.64H668.955V123.66H666.255V121.61H669.445V120.63H665.095V128ZM671.091 128H672.131V124.36C672.131 123.7 672.041 122.75 671.991 122.08H672.031L672.611 123.78L673.901 127.29H674.621L675.901 123.78L676.491 122.08H676.531C676.471 122.75 676.381 123.7 676.381 124.36V128H677.461V120.63H676.121L674.791 124.36C674.621 124.85 674.481 125.35 674.311 125.84H674.261C674.091 125.35 673.941 124.85 673.771 124.36L672.421 120.63H671.091V128ZM679.392 128H683.852V127.02H680.552V124.64H683.252V123.66H680.552V121.61H683.742V120.63H679.392V128ZM685.388 128H686.488V124.53C686.488 123.73 686.398 122.88 686.338 122.12H686.388L687.158 123.66L689.598 128H690.788V120.63H689.688V124.07C689.688 124.87 689.778 125.76 689.838 126.52H689.788L689.018 124.96L686.578 120.63H685.388V128ZM694.232 128H695.392V121.61H697.562V120.63H692.072V121.61H694.232V128Z" fill="#0D1731"/>
<path opacity="0.2" d="M839.512 128H840.672V121.61H842.842V120.63H837.352V121.61H839.512V128ZM844.116 128H845.276V125.03H846.466L848.136 128H849.446L847.646 124.88C848.576 124.59 849.186 123.91 849.186 122.77C849.186 121.18 848.046 120.63 846.526 120.63H844.116V128ZM845.276 124.1V121.57H846.386C847.456 121.57 848.036 121.88 848.036 122.77C848.036 123.66 847.456 124.1 846.386 124.1H845.276ZM852.029 124C852.269 123.2 852.499 122.39 852.709 121.55H852.759C852.979 122.38 853.199 123.2 853.449 124L853.739 124.99H851.729L852.029 124ZM849.649 128H850.829L851.459 125.9H854.019L854.639 128H855.869L853.429 120.63H852.089L849.649 128ZM856.84 128H858V120.63H856.84V128ZM859.926 128H861.026V124.53C861.026 123.73 860.936 122.88 860.876 122.12H860.926L861.696 123.66L864.136 128H865.326V120.63H864.226V124.07C864.226 124.87 864.316 125.76 864.376 126.52H864.326L863.556 124.96L861.116 120.63H859.926V128ZM867.27 128H868.43V120.63H867.27V128ZM870.356 128H871.456V124.53C871.456 123.73 871.366 122.88 871.306 122.12H871.356L872.126 123.66L874.566 128H875.756V120.63H874.656V124.07C874.656 124.87 874.746 125.76 874.806 126.52H874.756L873.986 124.96L871.546 120.63H870.356V128ZM880.699 128.13C881.709 128.13 882.539 127.76 883.029 127.27V124.08H880.519V125.03H881.979V126.76C881.719 126.99 881.269 127.12 880.819 127.12C879.299 127.12 878.489 126.05 878.489 124.3C878.489 122.57 879.399 121.51 880.769 121.51C881.479 121.51 881.929 121.8 882.299 122.17L882.919 121.43C882.469 120.96 881.769 120.5 880.729 120.5C878.779 120.5 877.299 121.94 877.299 124.34C877.299 126.75 878.739 128.13 880.699 128.13ZM886.957 128H889.417C891.047 128 892.237 127.3 892.237 125.84C892.237 124.84 891.627 124.27 890.787 124.09V124.04C891.447 123.82 891.837 123.15 891.837 122.45C891.837 121.12 890.747 120.63 889.237 120.63H886.957V128ZM888.117 123.71V121.54H889.137C890.177 121.54 890.697 121.83 890.697 122.6C890.697 123.29 890.227 123.71 889.107 123.71H888.117ZM888.117 127.09V124.58H889.287C890.457 124.58 891.097 124.95 891.097 125.78C891.097 126.68 890.437 127.09 889.287 127.09H888.117ZM895.037 124C895.277 123.2 895.507 122.39 895.717 121.55H895.767C895.987 122.38 896.207 123.2 896.457 124L896.747 124.99H894.737L895.037 124ZM892.657 128H893.837L894.467 125.9H897.027L897.647 128H898.877L896.437 120.63H895.097L892.657 128ZM901.948 128.13C903.558 128.13 904.538 127.17 904.538 125.99C904.538 124.91 903.908 124.37 903.038 124L902.028 123.57C901.428 123.33 900.838 123.09 900.838 122.45C900.838 121.87 901.328 121.51 902.078 121.51C902.728 121.51 903.238 121.76 903.698 122.17L904.308 121.43C903.748 120.86 902.938 120.5 902.078 120.5C900.678 120.5 899.658 121.37 899.658 122.53C899.658 123.6 900.448 124.16 901.158 124.46L902.178 124.9C902.858 125.2 903.358 125.41 903.358 126.08C903.358 126.7 902.858 127.12 901.968 127.12C901.258 127.12 900.538 126.78 900.008 126.25L899.328 127.05C899.998 127.73 900.938 128.13 901.948 128.13ZM905.932 128H910.392V127.02H907.092V124.64H909.792V123.66H907.092V121.61H910.282V120.63H905.932V128Z" fill="#0D1731"/>
<path opacity="0.2" d="M1058.37 128H1062.83V127.02H1059.53V124.64H1062.23V123.66H1059.53V121.61H1062.72V120.63H1058.37V128ZM1064.36 128H1065.46V124.53C1065.46 123.73 1065.37 122.88 1065.31 122.12H1065.36L1066.13 123.66L1068.57 128H1069.76V120.63H1068.66V124.07C1068.66 124.87 1068.75 125.76 1068.81 126.52H1068.76L1067.99 124.96L1065.55 120.63H1064.36V128ZM1073.21 128H1074.37V121.61H1076.54V120.63H1071.05V121.61H1073.21V128ZM1077.81 128H1082.27V127.02H1078.97V124.64H1081.67V123.66H1078.97V121.61H1082.16V120.63H1077.81V128ZM1083.81 128H1084.97V125.03H1086.16L1087.83 128H1089.14L1087.34 124.88C1088.27 124.59 1088.88 123.91 1088.88 122.77C1088.88 121.18 1087.74 120.63 1086.22 120.63H1083.81V128ZM1084.97 124.1V121.57H1086.08C1087.15 121.57 1087.73 121.88 1087.73 122.77C1087.73 123.66 1087.15 124.1 1086.08 124.1H1084.97ZM1090.37 128H1091.53V125.21H1092.64C1094.24 125.21 1095.41 124.47 1095.41 122.86C1095.41 121.2 1094.24 120.63 1092.6 120.63H1090.37V128ZM1091.53 124.28V121.57H1092.49C1093.66 121.57 1094.27 121.89 1094.27 122.86C1094.27 123.83 1093.71 124.28 1092.53 124.28H1091.53ZM1096.84 128H1098V125.03H1099.19L1100.86 128H1102.17L1100.37 124.88C1101.3 124.59 1101.91 123.91 1101.91 122.77C1101.91 121.18 1100.77 120.63 1099.25 120.63H1096.84V128ZM1098 124.1V121.57H1099.11C1100.18 121.57 1100.76 121.88 1100.76 122.77C1100.76 123.66 1100.18 124.1 1099.11 124.1H1098ZM1103.41 128H1104.57V120.63H1103.41V128ZM1108.59 128.13C1110.2 128.13 1111.18 127.17 1111.18 125.99C1111.18 124.91 1110.55 124.37 1109.68 124L1108.67 123.57C1108.07 123.33 1107.48 123.09 1107.48 122.45C1107.48 121.87 1107.97 121.51 1108.72 121.51C1109.37 121.51 1109.88 121.76 1110.34 122.17L1110.95 121.43C1110.39 120.86 1109.58 120.5 1108.72 120.5C1107.32 120.5 1106.3 121.37 1106.3 122.53C1106.3 123.6 1107.09 124.16 1107.8 124.46L1108.82 124.9C1109.5 125.2 1110 125.41 1110 126.08C1110 126.7 1109.5 127.12 1108.61 127.12C1107.9 127.12 1107.18 126.78 1106.65 126.25L1105.97 127.05C1106.64 127.73 1107.58 128.13 1108.59 128.13ZM1112.58 128H1117.04V127.02H1113.74V124.64H1116.44V123.66H1113.74V121.61H1116.93V120.63H1112.58V128Z" fill="#0D1731"/>
<path d="M33.856 102.19H25.034V94.974H32.602V92.972H15.354V94.974H22.922V102.19H14.21V104.258H22.922V111.738H25.034V104.258H33.856V102.19ZM16.784 96.448C17.576 97.988 18.324 100.034 18.61 101.288L20.568 100.628C20.282 99.352 19.446 97.394 18.632 95.876L16.784 96.448ZM28.906 101.31C29.72 100.078 30.688 98.098 31.48 96.382L29.302 95.788C28.818 97.328 27.894 99.418 27.146 100.738L28.906 101.31ZM50.95 104.324V108.592H40.94V104.324H50.95ZM38.872 111.738H40.94V110.572H50.95V111.694H53.128V102.366H38.872V111.738ZM48.002 94.886C48.948 95.766 49.96 96.822 50.906 97.878L40.676 98.296C42.48 96.58 44.35 94.446 45.934 92.224L43.888 91.344C42.282 94.006 39.796 96.712 39.026 97.438C38.3 98.142 37.75 98.604 37.222 98.692C37.442 99.264 37.794 100.276 37.882 100.694C38.872 100.342 40.28 100.298 52.38 99.66C52.886 100.298 53.326 100.914 53.656 101.464L55.372 100.188C54.228 98.384 51.654 95.678 49.586 93.808L48.002 94.886Z" fill="#0D1731"/>
<path d="M229.436 94.446C228.424 93.698 226.422 92.774 224.882 92.224L223.848 93.632C225.41 94.226 227.39 95.26 228.358 96.008L229.436 94.446ZM229.48 96.976C227.148 97.746 224.75 98.494 223.166 98.956L223.76 100.826C225.498 100.21 227.742 99.484 229.832 98.736L229.48 96.976ZM240.348 107.646V101.816H225.916V107.822H227.94V103.664H238.258V107.646H240.348ZM232.142 104.258C231.526 107.492 229.986 109.274 223.078 110.088C223.386 110.506 223.826 111.298 223.98 111.76C231.438 110.726 233.418 108.416 234.166 104.258H232.142ZM233.264 108.504C235.926 109.362 239.534 110.726 241.338 111.672L242.57 110C240.678 109.098 237.004 107.8 234.43 107.074L233.264 108.504ZM239.82 95.04C239.556 95.7 239.248 96.36 238.984 96.822L240.788 97.306C241.316 96.426 241.954 95.04 242.438 93.786L240.942 93.412L240.634 93.478H233.748C233.99 92.95 234.21 92.444 234.408 91.916L232.472 91.652C231.944 93.192 230.844 94.974 229.106 96.294C229.546 96.558 230.228 97.13 230.514 97.592C231.482 96.8 232.23 95.942 232.846 95.04H235.046C234.408 97.152 233.066 99.044 229.282 100.1C229.656 100.43 230.162 101.134 230.36 101.574C233.33 100.65 235.002 99.264 236.036 97.592C237.356 99.352 239.292 100.694 241.668 101.376C241.932 100.892 242.438 100.144 242.878 99.792C240.15 99.198 237.928 97.812 236.784 95.942C236.894 95.634 236.982 95.348 237.07 95.04H239.82ZM250.754 93.984C249.896 93.368 248.224 92.4 247.102 91.762L245.892 93.214C247.058 93.94 248.686 94.974 249.5 95.612L250.754 93.984ZM249.698 99.726C248.818 99.132 247.168 98.208 246.024 97.614L244.836 99.066C246.024 99.748 247.652 100.76 248.466 101.354L249.698 99.726ZM248.444 103.268C247.476 105.798 246.156 108.614 245.232 110.33L247.08 111.452C248.092 109.362 249.214 106.722 250.072 104.412L248.444 103.268ZM253.394 94.49H264.856V92.642H251.392V98.648C251.392 102.212 251.172 107.162 248.708 110.594C249.192 110.814 250.072 111.342 250.424 111.672C252.998 108.042 253.394 102.476 253.394 98.648V94.49ZM255.044 105.49C254.472 106.898 253.526 108.438 252.58 109.472C253.042 109.714 253.834 110.198 254.208 110.462C255.11 109.362 256.166 107.58 256.87 105.996L255.044 105.49ZM256.276 101.288H262.216V102.894H256.276V101.288ZM256.276 98.252H262.216V99.836H256.276V98.252ZM264.13 104.412V96.712H259.62C259.884 96.184 260.192 95.634 260.478 95.04L258.19 94.622C258.058 95.216 257.816 96.03 257.596 96.712H254.45V104.412H258.168V109.648C258.168 109.89 258.08 109.978 257.816 109.978C257.552 109.978 256.65 110 255.726 109.956C255.924 110.462 256.188 111.21 256.254 111.716C257.684 111.738 258.652 111.716 259.29 111.408C259.95 111.144 260.104 110.638 260.104 109.714V104.412H264.13ZM261.204 105.952C261.996 107.338 262.964 109.186 263.426 110.286L265.296 109.472C264.812 108.394 263.778 106.612 262.964 105.292L261.204 105.952Z" fill="#0D1731"/>
<path d="M449.724 96.162V94.226H442.486C442.2 93.39 441.694 92.268 441.21 91.344L439.186 91.85C439.538 92.576 439.89 93.456 440.176 94.226H431.64V100.144C431.64 103.246 431.486 107.668 429.836 110.748C430.32 110.946 431.244 111.54 431.618 111.914C433.422 108.592 433.708 103.532 433.708 100.144V96.162H449.724ZM443.124 104.896C442.794 102.872 441.98 99.858 441.232 97.482L439.362 97.966C440.066 100.342 440.858 103.444 441.144 105.468L443.124 104.896ZM439.076 105.952C438.592 103.928 437.558 100.914 436.59 98.56L434.808 99.242C435.688 101.618 436.744 104.72 437.162 106.766L439.076 105.952ZM444.29 108.834C446.248 105.534 447.854 101.684 448.888 98.12L446.732 97.372C445.896 101.09 444.268 105.512 442.156 108.834H433.73V110.77H449.988V108.834H444.29ZM463.188 103.268V100.012H468.512V103.268H463.188ZM456.28 103.268C456.346 102.454 456.368 101.64 456.368 100.892V100.012H461.142V103.268H456.28ZM461.142 94.996V98.098H456.368V94.996H461.142ZM468.512 98.098H463.188V94.996H468.512V98.098ZM470.558 93.038H454.344V100.87C454.344 103.972 454.124 107.866 451.726 110.528C452.188 110.77 453.024 111.474 453.332 111.87C454.938 110.088 455.73 107.624 456.082 105.204H461.142V111.496H463.188V105.204H468.512V109.142C468.512 109.56 468.358 109.692 467.962 109.692C467.544 109.692 466.092 109.714 464.684 109.648C464.948 110.176 465.278 111.078 465.366 111.628C467.39 111.65 468.666 111.606 469.48 111.276C470.272 110.968 470.558 110.352 470.558 109.164V93.038Z" fill="#0D1731"/>
<path d="M648.676 94.688C649.182 95.502 649.688 96.448 649.886 97.108L651.624 96.47C651.448 96.008 651.096 95.326 650.678 94.688H653.736V93.236H648.148C648.368 92.752 648.544 92.29 648.698 91.806L646.696 91.432C646.124 93.302 645.134 95.194 643.924 96.36C644.43 96.58 645.288 97.042 645.684 97.306C646.322 96.602 646.938 95.7 647.466 94.688H648.676ZM659.632 107.8V109.516H649.622V107.8H659.632ZM658.51 101.904V103.444H649.622V101.904H658.51ZM649.622 104.962H660.49V100.364H647.554V111.76H649.622V111.078H659.632V111.716H661.656V106.26H649.622V104.962ZM652.526 96.316C652.746 96.712 652.966 97.174 653.164 97.614H645.068V101.332H647.026V99.22H661.106V101.332H663.174V97.614H655.21C655.012 97.086 654.682 96.448 654.33 95.942L652.526 96.316ZM657.432 93.236C657.63 92.752 657.806 92.29 657.938 91.806L655.958 91.454C655.54 93.016 654.792 94.578 653.802 95.59C654.264 95.81 655.122 96.25 655.474 96.514C655.936 96.008 656.354 95.392 656.75 94.71H658.004C658.642 95.502 659.302 96.514 659.566 97.13L661.26 96.382C661.04 95.92 660.6 95.304 660.138 94.71H663.68V93.236H657.432ZM672.854 105.314C672.106 105.578 671.314 105.82 670.566 106.062V101.09H672.656V99.198H670.566V94.82H673.008V92.928H666.012V94.82H668.608V99.198H666.232V101.09H668.608V106.678C667.552 107.008 666.584 107.272 665.792 107.492L666.276 109.582C668.256 108.944 670.808 108.086 673.206 107.25L672.854 105.314ZM675.824 98.296H678.706V100.694H675.824V98.296ZM675.824 94.27H678.706V96.646H675.824V94.27ZM683.26 96.646H680.444V94.27H683.26V96.646ZM683.26 100.694H680.444V98.296H683.26V100.694ZM680.62 109.164V106.546H685.504V104.698H680.62V102.432H685.218V92.532H673.954V102.432H678.53V104.698H673.756V106.546H678.53V109.164H672.15V111.034H686.208V109.164H680.62Z" fill="#0D1731"/>
<path d="M812.706 96.712C813.168 96.206 813.608 95.612 813.982 94.908H815.522V96.03C815.522 96.25 815.522 96.47 815.5 96.712H812.706ZM820.978 100.826C820.384 100.408 817.964 98.978 817.062 98.538L817.128 98.34H821.044V96.712H817.436C817.458 96.492 817.458 96.272 817.458 96.052V94.908H820.494V93.28H814.796C814.972 92.796 815.148 92.334 815.302 91.828L813.476 91.454C813.014 93.082 812.156 94.688 811.056 95.788C811.474 95.964 812.222 96.448 812.618 96.712H811.122V98.34H815.104C814.598 99.572 813.454 100.848 810.902 101.838C811.364 102.168 811.936 102.806 812.2 103.202C814.356 102.234 815.654 101.068 816.424 99.88C817.48 100.606 818.91 101.64 819.548 102.168L820.978 100.826ZM825.884 104.28V105.996H816.204V104.28H825.884ZM816.204 109.296V107.536H825.884V109.296H816.204ZM814.18 111.716H816.204V110.946H825.884V111.694H827.974V102.652H814.18V111.716ZM827.798 99.308H823.794V95.062H827.798V99.308ZM821.88 93.258V101.112H829.822V93.258H821.88ZM846.564 99.22H848.478V98.23H852.372V96.954H848.478V96.008H851.602V94.754H848.478V93.852H851.976V92.576H848.478V91.542H846.564V92.576H843.264V93.852H846.564V94.754H843.726V96.008H846.564V96.954H843.044V98.23H846.564V99.22ZM850.568 99.55H835.212V100.892H848.566V101.948H835.938V103.224H848.566V104.324H835.08V105.666H842.582L841.482 106.612C842.516 107.228 843.704 108.196 844.232 108.878L845.53 107.712C844.98 107.096 843.88 106.238 842.89 105.666H850.568V99.55ZM837.148 99.22H839.04V98.186H842.318V96.91H839.04V96.008H841.768V94.754H839.04V93.852H842.054V92.576H839.04V91.542H837.148V92.576H833.782V93.852H837.148V94.754H834.288V96.008H837.148V96.91H833.496V98.186H837.148V99.22ZM835.256 111.21C836.026 110.176 836.642 108.57 837.104 107.316L835.344 106.59C834.948 107.8 834.266 109.296 833.474 110.22L835.256 111.21ZM841.636 109.736C840.36 109.736 840.14 109.67 840.14 109.098V106.48H838.138V109.12C838.138 110.924 838.798 111.43 841.504 111.43H845.97C848.016 111.43 848.61 110.858 848.852 108.416C848.324 108.306 847.51 108.042 847.07 107.756C846.96 109.494 846.784 109.736 845.794 109.736H841.636ZM848.896 106.942C849.754 108.24 850.656 110.044 850.986 111.144L852.988 110.55C852.636 109.406 851.646 107.69 850.766 106.414L848.896 106.942ZM857.982 95.744H871.974V98.516H874.108V93.83H866.65C866.364 93.082 865.792 92.114 865.33 91.344L863.262 91.982C863.592 92.532 863.966 93.214 864.252 93.83H855.958V98.516H857.982V95.744ZM863.724 98.934C863.064 98.164 861.634 97.196 860.468 96.58L859.258 97.922C860.424 98.582 861.81 99.638 862.426 100.386L863.724 98.934ZM857.08 101.266C858.268 101.904 859.698 102.938 860.402 103.686L861.656 102.168C860.908 101.42 859.456 100.452 858.268 99.88L857.08 101.266ZM865.748 107.954C868.608 108.944 871.49 110.374 873.206 111.628L874.46 110C872.678 108.812 869.598 107.404 866.716 106.458L865.748 107.954ZM866.232 104.17C866.782 102.102 866.936 99.638 867.024 96.756H864.868C864.78 99.77 864.692 102.212 864.01 104.17H855.628V105.908H863.152C861.942 107.756 859.742 109.076 855.826 109.912C856.266 110.352 856.772 111.144 856.97 111.694C861.854 110.55 864.296 108.636 865.572 105.908H874.504V104.17H866.232ZM883.172 95.282C882.336 94.358 880.576 92.906 879.278 91.916L878.024 93.28C879.322 94.336 881.038 95.854 881.83 96.822L883.172 95.282ZM881.742 107.03V98.34H876.946V100.298H879.784V107.756C879.784 108.856 879.146 109.604 878.728 109.978C879.058 110.286 879.608 111.012 879.806 111.43C880.136 110.902 880.73 110.352 884.404 107.206C884.14 106.832 883.766 106.04 883.568 105.468L881.742 107.03ZM885.306 99.77C885.306 103.598 885.086 107.36 882.996 110.528C883.59 110.77 884.514 111.32 884.976 111.694C887.11 108.24 887.352 103.95 887.352 99.792V92.202H885.306V99.77ZM889.838 108.878H891.73V93.302H889.838V108.878ZM894.304 92.092V111.452H896.35V92.092H894.304ZM905.304 100.628H912.784V101.948H905.304V100.628ZM912.784 95.15V96.382H905.304V95.15H912.784ZM905.304 97.878H912.784V99.132H905.304V97.878ZM919.01 103.642V101.948H914.874V95.15H918.02V93.478H914.874V91.586H912.784V93.478H905.304V91.564H903.258V93.478H900.068V95.15H903.258V101.948H898.99V103.642H903.522C902.268 105.006 900.508 106.238 898.77 106.898C899.21 107.25 899.804 107.976 900.09 108.46C901.344 107.866 902.62 107.03 903.72 106.04V107.492H907.922V109.45H900.816V111.144H917.382V109.45H909.99V107.492H914.346V105.864H909.99V104.214H907.922V105.864H903.896C904.622 105.182 905.304 104.412 905.832 103.642H912.388C913.73 105.556 915.842 107.294 917.954 108.218C918.24 107.734 918.856 107.008 919.274 106.634C917.58 106.04 915.864 104.918 914.632 103.642H919.01ZM925.566 98.648H928.008V96.712H925.566V91.828H923.652V96.712H920.946V98.648H923.652V105.248C922.552 105.71 921.54 106.106 920.748 106.37L921.54 108.438C923.498 107.558 926.006 106.414 928.316 105.292L927.854 103.488C927.106 103.796 926.314 104.126 925.566 104.456V98.648ZM932.98 109.45C931.572 109.45 931.33 109.208 931.33 107.976V100.76L933.794 99.704V106.788H935.708V98.89L938.26 97.79C938.26 101.134 938.216 103.18 938.128 103.62C938.04 104.06 937.842 104.148 937.556 104.148C937.336 104.148 936.742 104.148 936.28 104.126C936.5 104.566 936.676 105.336 936.742 105.864C937.38 105.864 938.26 105.842 938.854 105.622C939.536 105.446 939.91 104.962 940.02 104.038C940.152 103.18 940.196 100.188 940.196 96.096L940.284 95.744L938.854 95.194L938.502 95.48L938.106 95.788L935.708 96.8V91.564H933.794V97.614L931.33 98.648V93.632H929.394V99.462L927.106 100.43L927.876 102.234L929.394 101.596V107.954C929.394 110.594 930.164 111.276 932.87 111.276H937.908C940.306 111.276 940.922 110.286 941.208 107.25C940.658 107.14 939.866 106.81 939.404 106.502C939.228 108.9 939.008 109.45 937.798 109.45H932.98Z" fill="#0D1731"/>
<path d="M898.018 45.3096H896.065V63.0322C896.065 65 895.545 65 894.1 65H844.897C843.267 65 842.931 64.6763 842.931 63.0322V45.3096H840.966C840.541 45.3096 839 44.3511 839 43.3418V35.458C839 34.728 839 33.4902 840.966 33.4902H854.744V27.9678C854.744 27.9678 851.846 28.812 850.806 27.5933C849.766 26.3745 850.806 24.4321 851.668 24.0259L866.556 15.7676V0H870.494C870.494 0 879.491 5.52246 880.252 6.12549C879.421 5.71924 881.247 6.32227 881.247 7.5918C881.247 8.86133 879.459 9.4834 880.252 9.0581C881.044 8.63281 870.494 13.7808 870.494 13.7808V15.7485L887.334 24.0068C888.545 24.6987 888.964 26.2412 888.273 27.4536C888.247 27.498 888.222 27.5361 888.197 27.5742C887.22 29.3643 884.259 27.9678 884.259 27.9678V33.4902H898.031C898.031 33.4902 900.098 33.4902 899.996 35.458V43.3418C899.851 44.3638 899.052 45.1699 898.031 45.3096H898.018ZM884.234 61.0898H892.109V45.3096H884.253L884.234 61.0898ZM866.518 61.0898H872.421V55.1421H866.531L866.518 61.0898ZM854.744 37.4575H842.931V41.3677H854.744V37.4575ZM846.869 45.3096V61.0898H854.744V45.3096H846.869ZM874.412 7.85205L870.475 5.91602V9.77539L874.412 7.85205ZM868.503 19.6714L858.745 25.9111V61.0898H862.682V53.1934C862.644 52.1396 863.468 51.2573 864.521 51.2256H874.412C876.803 51.2256 876.378 52.8569 876.378 53.1934V61.0898H880.315V25.9429L868.503 19.6714ZM896.065 37.4575H884.253V41.3677H896.065V37.4575ZM869.498 41.7422C865.618 41.7041 862.498 38.5303 862.536 34.6392C862.574 30.748 865.745 27.6377 869.625 27.6694C873.48 27.7075 876.587 30.8433 876.587 34.7026C876.574 38.6128 873.398 41.7612 869.498 41.7422ZM869.498 31.5161C867.862 31.5098 866.531 32.8301 866.518 34.4614C866.512 36.0991 867.831 37.4321 869.46 37.4448C871.096 37.4512 872.428 36.1309 872.44 34.4995V34.4805C872.44 32.8491 871.128 31.5225 869.498 31.5161ZM848.752 55.1484H852.772V59.0903H848.752V55.1484ZM848.752 49.2324H852.772V53.1743H848.752V49.2324ZM886.174 55.1484H890.111V59.0903H886.174V55.1484ZM886.174 49.2324H890.111V53.1743H886.174V49.2324Z" fill="#1B6B60"/>
<path d="M1079.25 104.258H1085.37V102.432H1079.25V97.614H1077.1V109.252H1073.4V101.376H1071.4V109.252H1068.78V111.122H1087.37V109.252H1079.25V104.258ZM1077.82 91.344C1075.65 94.644 1071.69 97.482 1067.7 99.044C1068.23 99.528 1068.8 100.254 1069.11 100.782C1072.41 99.286 1075.62 97.042 1078.02 94.336C1080.93 97.548 1083.9 99.308 1087.09 100.804C1087.33 100.166 1087.9 99.462 1088.41 99.022C1085.13 97.702 1081.94 96.03 1079.17 92.928C1079.34 92.686 1079.52 92.466 1079.67 92.224L1077.82 91.344ZM1107.5 96.426C1106.69 98.956 1105.19 102.168 1104.03 104.17L1105.72 105.05C1106.91 102.982 1108.34 99.946 1109.37 97.328L1107.5 96.426ZM1095.62 104.148C1095.05 102.168 1093.73 98.868 1092.63 96.36L1090.76 96.954C1091.84 99.484 1093.07 102.872 1093.58 104.896L1095.62 104.148ZM1103.76 108.636V91.85H1101.67V108.636H1098.35V91.828H1096.26V108.636H1090.34V110.66H1109.68V108.636H1103.76Z" fill="#0D1731"/>
<path fill-rule="evenodd" clip-rule="evenodd" d="M59.0119 53.2095H5.06695C2.27021 53.2095 0.00683801 50.9461 0 48.1494V11.0601C0 8.26337 2.27021 6 5.06011 6H59.005C61.8018 6 64.0651 8.26337 64.072 11.0601V48.1494C64.0651 50.9461 61.8086 53.2026 59.0119 53.2095ZM5.06011 9.37113C4.13015 9.37113 3.37797 10.1301 3.37797 11.0601V48.1494C3.37797 49.0793 4.13015 49.8315 5.06011 49.8384H59.005C59.4563 49.8384 59.8871 49.6674 60.2017 49.346C60.523 49.0315 60.7008 48.6007 60.7008 48.1494V11.0601C60.7008 10.1301 59.9487 9.37113 59.0119 9.37113H5.06011ZM51.4354 58.3858H13.4161C13.3614 58.3858 13.3136 58.338 13.3136 58.2833V54.6728C13.3136 54.6181 13.3614 54.5702 13.4161 54.5702H51.4354C51.4901 54.5702 51.5379 54.6181 51.5379 54.6728V58.2833C51.5379 58.338 51.4901 58.3858 51.4354 58.3858ZM46.9832 33.4408L38.6662 20.2816C38.884 19.6197 39.0024 18.9127 39.0037 18.1784C39.0037 14.4517 35.9814 11.4293 32.2547 11.4293C28.528 11.4293 25.5056 14.4517 25.5056 18.1784C25.5056 19.1409 25.7072 20.0564 26.0704 20.885L18.0713 33.514C17.7459 33.4658 17.413 33.4408 17.0743 33.4408C13.3476 33.4408 10.3252 36.4632 10.3252 40.1899C10.3252 43.9166 13.3476 46.939 17.0743 46.939C19.3872 46.9348 21.4262 45.7716 22.6421 43.9988H41.0143C41.1455 43.9988 41.2732 43.9838 41.396 43.9555C42.6083 45.755 44.6649 46.939 46.9974 46.939C50.7241 46.9322 53.7396 43.9166 53.7465 40.1899C53.7465 36.4632 50.7241 33.4408 46.9974 33.4408C46.9927 33.4408 46.988 33.4408 46.9832 33.4408ZM40.2618 40.6208H23.8091C23.8183 40.4783 23.8231 40.3346 23.8234 40.1899C23.8234 38.0243 22.8028 36.0966 21.2165 34.8615L28.3093 23.6544C29.419 24.4554 30.7818 24.9275 32.2547 24.9275C33.9128 24.9275 35.4324 24.327 36.6081 23.3312L43.5832 34.3672C41.5879 35.5399 40.2483 37.7088 40.2483 40.1899C40.2483 40.3346 40.2528 40.4783 40.2618 40.6208ZM28.8767 18.1921C28.8767 16.3253 30.3879 14.8141 32.2547 14.8141C33.1504 14.8141 34.0052 15.1765 34.6411 15.8056C35.277 16.4347 35.6326 17.2963 35.6326 18.1921C35.6326 20.0589 34.1214 21.5701 32.2547 21.5701C30.3879 21.5701 28.8767 20.0589 28.8767 18.1921ZM13.6963 40.1899C13.6963 38.3231 15.2075 36.8119 17.0743 36.8119C18.9411 36.8119 20.4523 38.33 20.4523 40.1899C20.4523 42.0567 18.9411 43.5679 17.0743 43.5679C15.2075 43.5679 13.6963 42.0567 13.6963 40.1899ZM43.8724 38.8975C44.3989 37.6325 45.6298 36.8119 46.9974 36.8119C48.8641 36.8119 50.3753 38.33 50.3753 40.1831C50.3753 41.5507 49.5548 42.7883 48.2897 43.308C47.0247 43.8345 45.5682 43.5405 44.6041 42.5764C43.6399 41.6122 43.3527 40.1626 43.8724 38.8975Z" fill="#1B6B60"/>
<mask id="path-15-outside-1" maskUnits="userSpaceOnUse" x="409" y="6" width="52" height="54" fill="black">
<rect fill="white" x="409" y="6" width="52" height="54"/>
<path fill-rule="evenodd" clip-rule="evenodd" d="M411.505 7H458.346C459.174 7 459.851 7.67729 459.851 8.50509V57.0551C459.851 57.8829 459.174 58.5602 458.34 58.5602H411.505C410.677 58.5602 410 57.8829 410 57.0551V8.50509C410 7.67729 410.677 7 411.505 7ZM456.991 16.9497V9.85967H412.86V16.9497H456.991ZM412.86 19.9062V55.7005H456.991V19.9062H412.86ZM439.188 39H429.625V41.2469H439.188V39ZM416.138 14.4673C416.275 14.6051 416.439 14.7144 416.619 14.7889C416.799 14.8635 416.992 14.9019 417.187 14.9019C417.382 14.9019 417.574 14.8635 417.754 14.7889C417.934 14.7144 418.098 14.6051 418.236 14.4673C418.373 14.3295 418.483 14.166 418.557 13.986C418.632 13.806 418.67 13.6131 418.67 13.4182C418.67 13.2234 418.632 13.0305 418.557 12.8505C418.483 12.6705 418.373 12.507 418.236 12.3692C418.098 12.2314 417.934 12.1222 417.754 12.0476C417.574 11.973 417.381 11.9347 417.187 11.9347C416.992 11.9347 416.799 11.9731 416.619 12.0476C416.439 12.1222 416.275 12.2315 416.138 12.3692C416 12.507 415.891 12.6705 415.816 12.8505C415.741 13.0305 415.703 13.2235 415.703 13.4183C415.703 13.6131 415.741 13.806 415.816 13.986C415.891 14.166 416 14.3296 416.138 14.4673ZM422.28 14.2849C422.166 14.1268 422.084 13.9479 422.04 13.7582C421.995 13.5686 421.988 13.372 422.019 13.1797C422.05 12.9874 422.119 12.8031 422.221 12.6373C422.324 12.4716 422.458 12.3276 422.616 12.2137C422.774 12.0998 422.953 12.0181 423.143 11.9733C423.332 11.9285 423.529 11.9215 423.721 11.9527C423.913 11.9839 424.098 12.0527 424.264 12.1551C424.429 12.2576 424.573 12.3916 424.687 12.5497C424.801 12.7078 424.883 12.8867 424.927 13.0763C424.972 13.266 424.979 13.4626 424.948 13.6549C424.917 13.8472 424.848 14.0315 424.746 14.1972C424.643 14.363 424.509 14.5069 424.351 14.6209C424.193 14.7348 424.014 14.8165 423.825 14.8613C423.635 14.9061 423.438 14.913 423.246 14.8818C423.054 14.8506 422.869 14.7819 422.704 14.6794C422.538 14.577 422.394 14.4429 422.28 14.2849ZM428.435 14.4672C428.572 14.605 428.736 14.7143 428.916 14.7888C429.096 14.8634 429.289 14.9018 429.484 14.9018C429.678 14.9017 429.871 14.8634 430.051 14.7888C430.231 14.7143 430.395 14.605 430.533 14.4672C430.67 14.3294 430.78 14.1659 430.854 13.9859C430.929 13.8059 430.967 13.613 430.967 13.4181C430.967 13.2233 430.929 13.0304 430.854 12.8504C430.78 12.6704 430.67 12.5068 430.533 12.3691C430.395 12.2313 430.231 12.122 430.051 12.0475C429.871 11.9729 429.678 11.9346 429.484 11.9346C429.289 11.9346 429.096 11.973 428.916 12.0475C428.736 12.1221 428.572 12.2314 428.435 12.3691C428.297 12.5069 428.187 12.6704 428.113 12.8504C428.038 13.0304 428 13.2234 428 13.4182C428 13.613 428.038 13.8059 428.113 13.9859C428.188 14.1659 428.297 14.3295 428.435 14.4672ZM448.638 32.1941H429.625V34.4518H448.638V32.1941Z"/>
</mask>
<path fill-rule="evenodd" clip-rule="evenodd" d="M411.505 7H458.346C459.174 7 459.851 7.67729 459.851 8.50509V57.0551C459.851 57.8829 459.174 58.5602 458.34 58.5602H411.505C410.677 58.5602 410 57.8829 410 57.0551V8.50509C410 7.67729 410.677 7 411.505 7ZM456.991 16.9497V9.85967H412.86V16.9497H456.991ZM412.86 19.9062V55.7005H456.991V19.9062H412.86ZM439.188 39H429.625V41.2469H439.188V39ZM416.138 14.4673C416.275 14.6051 416.439 14.7144 416.619 14.7889C416.799 14.8635 416.992 14.9019 417.187 14.9019C417.382 14.9019 417.574 14.8635 417.754 14.7889C417.934 14.7144 418.098 14.6051 418.236 14.4673C418.373 14.3295 418.483 14.166 418.557 13.986C418.632 13.806 418.67 13.6131 418.67 13.4182C418.67 13.2234 418.632 13.0305 418.557 12.8505C418.483 12.6705 418.373 12.507 418.236 12.3692C418.098 12.2314 417.934 12.1222 417.754 12.0476C417.574 11.973 417.381 11.9347 417.187 11.9347C416.992 11.9347 416.799 11.9731 416.619 12.0476C416.439 12.1222 416.275 12.2315 416.138 12.3692C416 12.507 415.891 12.6705 415.816 12.8505C415.741 13.0305 415.703 13.2235 415.703 13.4183C415.703 13.6131 415.741 13.806 415.816 13.986C415.891 14.166 416 14.3296 416.138 14.4673ZM422.28 14.2849C422.166 14.1268 422.084 13.9479 422.04 13.7582C421.995 13.5686 421.988 13.372 422.019 13.1797C422.05 12.9874 422.119 12.8031 422.221 12.6373C422.324 12.4716 422.458 12.3276 422.616 12.2137C422.774 12.0998 422.953 12.0181 423.143 11.9733C423.332 11.9285 423.529 11.9215 423.721 11.9527C423.913 11.9839 424.098 12.0527 424.264 12.1551C424.429 12.2576 424.573 12.3916 424.687 12.5497C424.801 12.7078 424.883 12.8867 424.927 13.0763C424.972 13.266 424.979 13.4626 424.948 13.6549C424.917 13.8472 424.848 14.0315 424.746 14.1972C424.643 14.363 424.509 14.5069 424.351 14.6209C424.193 14.7348 424.014 14.8165 423.825 14.8613C423.635 14.9061 423.438 14.913 423.246 14.8818C423.054 14.8506 422.869 14.7819 422.704 14.6794C422.538 14.577 422.394 14.4429 422.28 14.2849ZM428.435 14.4672C428.572 14.605 428.736 14.7143 428.916 14.7888C429.096 14.8634 429.289 14.9018 429.484 14.9018C429.678 14.9017 429.871 14.8634 430.051 14.7888C430.231 14.7143 430.395 14.605 430.533 14.4672C430.67 14.3294 430.78 14.1659 430.854 13.9859C430.929 13.8059 430.967 13.613 430.967 13.4181C430.967 13.2233 430.929 13.0304 430.854 12.8504C430.78 12.6704 430.67 12.5068 430.533 12.3691C430.395 12.2313 430.231 12.122 430.051 12.0475C429.871 11.9729 429.678 11.9346 429.484 11.9346C429.289 11.9346 429.096 11.973 428.916 12.0475C428.736 12.1221 428.572 12.2314 428.435 12.3691C428.297 12.5069 428.187 12.6704 428.113 12.8504C428.038 13.0304 428 13.2234 428 13.4182C428 13.613 428.038 13.8059 428.113 13.9859C428.188 14.1659 428.297 14.3295 428.435 14.4672ZM448.638 32.1941H429.625V34.4518H448.638V32.1941Z" fill="#1B6B60"/>
<path d="M456.991 9.85967H457.491V9.35967H456.991V9.85967ZM456.991 16.9497V17.4497H457.491V16.9497H456.991ZM412.86 9.85967V9.35967H412.36V9.85967H412.86ZM412.86 16.9497H412.36V17.4497H412.86V16.9497ZM412.86 55.7005H412.36V56.2005H412.86V55.7005ZM412.86 19.9062V19.4062H412.36V19.9062H412.86ZM456.991 55.7005V56.2005H457.491V55.7005H456.991ZM456.991 19.9062H457.491V19.4062H456.991V19.9062ZM429.625 39V38.5H429.125V39H429.625ZM439.188 39H439.688V38.5H439.188V39ZM429.625 41.2469H429.125V41.7469H429.625V41.2469ZM439.188 41.2469V41.7469H439.688V41.2469H439.188ZM416.619 14.7889L416.428 15.2509L416.428 15.2509L416.619 14.7889ZM416.138 14.4673L415.784 14.8209L415.784 14.8209L416.138 14.4673ZM417.187 14.9019L417.187 14.4019L417.187 14.9019ZM417.754 14.7889L417.946 15.2509L417.946 15.2509L417.754 14.7889ZM418.236 14.4673L417.882 14.1138L417.882 14.1138L418.236 14.4673ZM418.557 13.986L418.095 13.7947L418.095 13.7947L418.557 13.986ZM418.67 13.4182L419.17 13.4182V13.4182L418.67 13.4182ZM418.557 12.8505L418.095 13.0418L418.095 13.0418L418.557 12.8505ZM418.236 12.3692L417.882 12.7227L417.882 12.7228L418.236 12.3692ZM417.754 12.0476L417.563 12.5095H417.563L417.754 12.0476ZM416.619 12.0476L416.81 12.5096H416.81L416.619 12.0476ZM416.138 12.3692L416.491 12.7228L416.491 12.7228L416.138 12.3692ZM415.816 12.8505L416.278 13.0419L416.278 13.0419L415.816 12.8505ZM415.816 13.986L416.278 13.7947V13.7947L415.816 13.986ZM422.04 13.7582L422.526 13.6434L422.526 13.6433L422.04 13.7582ZM422.28 14.2849L422.686 13.9925L422.686 13.9925L422.28 14.2849ZM422.019 13.1797L422.513 13.2597V13.2597L422.019 13.1797ZM422.221 12.6373L422.647 12.9002L422.647 12.9002L422.221 12.6373ZM422.616 12.2137L422.324 11.8081L422.324 11.8081L422.616 12.2137ZM424.264 12.1551L424.526 11.7298L424.526 11.7298L424.264 12.1551ZM424.687 12.5497L424.282 12.8421L424.282 12.8421L424.687 12.5497ZM424.927 13.0763L424.441 13.1912L424.441 13.1913L424.927 13.0763ZM424.351 14.6209L424.059 14.2153L424.059 14.2153L424.351 14.6209ZM423.825 14.8613L423.71 14.3747H423.71L423.825 14.8613ZM422.704 14.6794L422.441 15.1048L422.704 14.6794ZM428.435 14.4672L428.788 14.1137L428.788 14.1137L428.435 14.4672ZM429.484 14.9018L429.484 15.4018H429.484L429.484 14.9018ZM430.051 14.7888L429.86 14.3269L429.86 14.3269L430.051 14.7888ZM430.854 12.8504L430.392 13.0417V13.0417L430.854 12.8504ZM430.533 12.3691L430.179 12.7226L430.179 12.7226L430.533 12.3691ZM430.051 12.0475L429.86 12.5094V12.5094L430.051 12.0475ZM428.916 12.0475L429.107 12.5094L429.107 12.5094L428.916 12.0475ZM428.435 12.3691L428.788 12.7227V12.7227L428.435 12.3691ZM428.113 12.8504L428.575 13.0418V13.0418L428.113 12.8504ZM429.625 32.1941V31.6941H429.125V32.1941H429.625ZM448.638 32.1941H449.138V31.6941H448.638V32.1941ZM429.625 34.4518H429.125V34.9518H429.625V34.4518ZM448.638 34.4518V34.9518H449.138V34.4518H448.638ZM458.346 6.5H411.505V7.5H458.346V6.5ZM460.351 8.50509C460.351 7.40115 459.45 6.5 458.346 6.5V7.5C458.897 7.5 459.351 7.95344 459.351 8.50509H460.351ZM460.351 57.0551V8.50509H459.351V57.0551H460.351ZM458.34 59.0602C459.448 59.0602 460.351 58.1602 460.351 57.0551H459.351C459.351 57.6056 458.899 58.0602 458.34 58.0602V59.0602ZM411.505 59.0602H458.34V58.0602H411.505V59.0602ZM409.5 57.0551C409.5 58.159 410.401 59.0602 411.505 59.0602V58.0602C410.953 58.0602 410.5 57.6067 410.5 57.0551H409.5ZM409.5 8.50509V57.0551H410.5V8.50509H409.5ZM411.505 6.5C410.401 6.5 409.5 7.40115 409.5 8.50509H410.5C410.5 7.95343 410.953 7.5 411.505 7.5V6.5ZM456.491 9.85967V16.9497H457.491V9.85967H456.491ZM412.86 10.3597H456.991V9.35967H412.86V10.3597ZM413.36 16.9497V9.85967H412.36V16.9497H413.36ZM456.991 16.4497H412.86V17.4497H456.991V16.4497ZM413.36 55.7005V19.9062H412.36V55.7005H413.36ZM456.991 55.2005H412.86V56.2005H456.991V55.2005ZM456.491 19.9062V55.7005H457.491V19.9062H456.491ZM412.86 20.4062H456.991V19.4062H412.86V20.4062ZM429.625 39.5H439.188V38.5H429.625V39.5ZM430.125 41.2469V39H429.125V41.2469H430.125ZM439.188 40.7469H429.625V41.7469H439.188V40.7469ZM438.688 39V41.2469H439.688V39H438.688ZM416.81 14.327C416.691 14.2776 416.582 14.2051 416.491 14.1138L415.784 14.8209C415.968 15.0051 416.187 15.1512 416.428 15.2509L416.81 14.327ZM417.187 14.4019C417.057 14.4019 416.93 14.3764 416.81 14.327L416.428 15.2509C416.668 15.3506 416.926 15.4019 417.187 15.4019L417.187 14.4019ZM417.563 14.327C417.444 14.3764 417.316 14.4019 417.187 14.4019L417.187 15.4019C417.447 15.4019 417.705 15.3505 417.946 15.2509L417.563 14.327ZM417.882 14.1138C417.791 14.2051 417.682 14.2775 417.563 14.327L417.946 15.2509C418.186 15.1512 418.405 15.005 418.589 14.8209L417.882 14.1138ZM418.095 13.7947C418.046 13.914 417.973 14.0224 417.882 14.1138L418.589 14.8209C418.773 14.6367 418.92 14.418 419.019 14.1773L418.095 13.7947ZM418.17 13.4182C418.17 13.5474 418.145 13.6753 418.095 13.7947L419.019 14.1773C419.119 13.9367 419.17 13.6787 419.17 13.4182L418.17 13.4182ZM418.095 13.0418C418.145 13.1612 418.17 13.2891 418.17 13.4183L419.17 13.4182C419.17 13.1577 419.119 12.8998 419.019 12.6591L418.095 13.0418ZM417.882 12.7228C417.973 12.8141 418.046 12.9225 418.095 13.0418L419.019 12.6591C418.92 12.4185 418.773 12.1998 418.589 12.0156L417.882 12.7228ZM417.563 12.5095C417.682 12.559 417.791 12.6314 417.882 12.7227L418.589 12.0156C418.405 11.8314 418.186 11.6853 417.946 11.5857L417.563 12.5095ZM417.187 12.4347C417.316 12.4347 417.444 12.4601 417.563 12.5095L417.946 11.5857C417.705 11.486 417.447 11.4347 417.187 11.4347L417.187 12.4347ZM416.81 12.5096C416.93 12.4601 417.057 12.4347 417.187 12.4347L417.187 11.4347C416.926 11.4347 416.668 11.486 416.428 11.5857L416.81 12.5096ZM416.491 12.7228C416.582 12.6314 416.691 12.559 416.81 12.5096L416.428 11.5857C416.187 11.6854 415.968 11.8315 415.784 12.0157L416.491 12.7228ZM416.278 13.0419C416.327 12.9225 416.4 12.8141 416.491 12.7228L415.784 12.0157C415.6 12.1999 415.454 12.4185 415.354 12.6592L416.278 13.0419ZM416.203 13.4183C416.203 13.2891 416.228 13.1612 416.278 13.0419L415.354 12.6592C415.254 12.8999 415.203 13.1578 415.203 13.4183L416.203 13.4183ZM416.278 13.7947C416.229 13.6754 416.203 13.5474 416.203 13.4183L415.203 13.4183C415.203 13.6788 415.254 13.9367 415.354 14.1774L416.278 13.7947ZM416.491 14.1138C416.4 14.0224 416.327 13.914 416.278 13.7947L415.354 14.1774C415.454 14.418 415.6 14.6367 415.784 14.8209L416.491 14.1138ZM421.553 13.8731C421.613 14.1266 421.722 14.3659 421.874 14.5772L422.686 13.9925C422.61 13.8877 422.556 13.7691 422.526 13.6434L421.553 13.8731ZM421.526 13.0997C421.484 13.3568 421.493 13.6197 421.553 13.8732L422.526 13.6433C422.497 13.5176 422.492 13.3873 422.513 13.2597L421.526 13.0997ZM421.796 12.3745C421.659 12.5961 421.567 12.8425 421.526 13.0997L422.513 13.2597C422.533 13.1322 422.579 13.0101 422.647 12.9002L421.796 12.3745ZM422.324 11.8081C422.112 11.9604 421.933 12.1529 421.796 12.3745L422.647 12.9002C422.715 12.7903 422.804 12.6948 422.908 12.6193L422.324 11.8081ZM423.028 11.4867C422.774 11.5466 422.535 11.6558 422.324 11.8081L422.908 12.6193C423.013 12.5438 423.132 12.4896 423.258 12.4599L423.028 11.4867ZM423.801 11.4592C423.544 11.4175 423.281 11.4268 423.028 11.4867L423.258 12.4599C423.383 12.4302 423.514 12.4256 423.641 12.4463L423.801 11.4592ZM424.526 11.7298C424.305 11.5929 424.058 11.5009 423.801 11.4592L423.641 12.4463C423.769 12.467 423.891 12.5126 424.001 12.5805L424.526 11.7298ZM425.093 12.2574C424.94 12.046 424.748 11.8668 424.526 11.7298L424.001 12.5805C424.111 12.6484 424.206 12.7373 424.282 12.8421L425.093 12.2574ZM425.414 12.9615C425.354 12.7079 425.245 12.4687 425.093 12.2574L424.282 12.8421C424.357 12.9469 424.411 13.0655 424.441 13.1912L425.414 12.9615ZM425.442 13.7349C425.483 13.4778 425.474 13.2149 425.414 12.9614L424.441 13.1913C424.471 13.317 424.475 13.4473 424.455 13.5748L425.442 13.7349ZM425.171 14.4601C425.308 14.2385 425.4 13.9921 425.442 13.7349L424.455 13.5748C424.434 13.7023 424.388 13.8245 424.32 13.9344L425.171 14.4601ZM424.644 15.0265C424.855 14.8741 425.034 14.6817 425.171 14.4601L424.32 13.9344C424.252 14.0443 424.164 14.1397 424.059 14.2153L424.644 15.0265ZM423.939 15.3479C424.193 15.288 424.432 15.1788 424.644 15.0265L424.059 14.2153C423.954 14.2908 423.835 14.345 423.71 14.3747L423.939 15.3479ZM423.166 15.3754C423.423 15.4171 423.686 15.4078 423.939 15.3479L423.71 14.3747C423.584 14.4044 423.454 14.409 423.326 14.3883L423.166 15.3754ZM422.441 15.1048C422.662 15.2417 422.909 15.3337 423.166 15.3754L423.326 14.3883C423.199 14.3676 423.076 14.322 422.967 14.2541L422.441 15.1048ZM421.874 14.5772C422.027 14.7886 422.219 14.9678 422.441 15.1048L422.967 14.2541C422.857 14.1862 422.761 14.0973 422.686 13.9925L421.874 14.5772ZM429.107 14.3269C428.988 14.2775 428.879 14.205 428.788 14.1137L428.081 14.8208C428.265 15.005 428.484 15.1511 428.725 15.2508L429.107 14.3269ZM429.484 14.4018C429.354 14.4018 429.227 14.3763 429.107 14.3269L428.725 15.2508C428.965 15.3505 429.223 15.4018 429.484 15.4018L429.484 14.4018ZM429.86 14.3269C429.741 14.3763 429.613 14.4018 429.484 14.4018L429.484 15.4018C429.744 15.4017 430.002 15.3504 430.243 15.2507L429.86 14.3269ZM430.179 14.1137C430.088 14.205 429.979 14.2774 429.86 14.3269L430.243 15.2507C430.483 15.1511 430.702 15.0049 430.886 14.8207L430.179 14.1137ZM430.392 13.7945C430.343 13.9139 430.27 14.0223 430.179 14.1137L430.886 14.8207C431.07 14.6365 431.217 14.4179 431.316 14.1772L430.392 13.7945ZM430.467 13.4181C430.467 13.5473 430.442 13.6752 430.392 13.7945L431.316 14.1772C431.416 13.9366 431.467 13.6786 431.467 13.4181L430.467 13.4181ZM430.392 13.0417C430.442 13.1611 430.467 13.289 430.467 13.4181L431.467 13.4181C431.467 13.1576 431.416 12.8997 431.316 12.659L430.392 13.0417ZM430.179 12.7226C430.27 12.814 430.343 12.9224 430.392 13.0417L431.316 12.659C431.216 12.4184 431.07 12.1997 430.886 12.0155L430.179 12.7226ZM429.86 12.5094C429.979 12.5589 430.088 12.6313 430.179 12.7226L430.886 12.0155C430.702 11.8313 430.483 11.6852 430.243 11.5855L429.86 12.5094ZM429.484 12.4346C429.613 12.4346 429.741 12.46 429.86 12.5094L430.243 11.5855C430.002 11.4859 429.744 11.4346 429.484 11.4346L429.484 12.4346ZM429.107 12.5094C429.227 12.46 429.354 12.4346 429.484 12.4346L429.484 11.4346C429.223 11.4346 428.965 11.4859 428.724 11.5856L429.107 12.5094ZM428.788 12.7227C428.879 12.6313 428.988 12.5589 429.107 12.5094L428.724 11.5856C428.484 11.6853 428.265 11.8314 428.081 12.0156L428.788 12.7227ZM428.575 13.0418C428.624 12.9224 428.697 12.814 428.788 12.7227L428.081 12.0156C427.897 12.1998 427.751 12.4184 427.651 12.6591L428.575 13.0418ZM428.5 13.4182C428.5 13.289 428.525 13.1611 428.575 13.0418L427.651 12.6591C427.551 12.8998 427.5 13.1577 427.5 13.4182L428.5 13.4182ZM428.575 13.7946C428.525 13.6752 428.5 13.5473 428.5 13.4182L427.5 13.4182C427.5 13.6787 427.551 13.9366 427.651 14.1773L428.575 13.7946ZM428.788 14.1137C428.697 14.0223 428.624 13.9139 428.575 13.7946L427.651 14.1773C427.751 14.4179 427.897 14.6366 428.081 14.8208L428.788 14.1137ZM429.625 32.6941H448.638V31.6941H429.625V32.6941ZM430.125 34.4518V32.1941H429.125V34.4518H430.125ZM448.638 33.9518H429.625V34.9518H448.638V33.9518ZM448.138 32.1941V34.4518H449.138V32.1941H448.138Z" fill="#1B6B60" mask="url(#path-15-outside-1)"/>
<path d="M469.228 20.3521H489.772C490.997 20.3521 492 21.4915 492 22.8841V55.82C492 57.2125 490.997 58.3521 489.772 58.3521H469.228C468.003 58.3521 467 57.2125 467 55.82V22.8841C467 21.4915 468.003 20.3521 469.228 20.3521ZM476.56 53.5853C476.079 53.5853 475.686 53.9689 475.686 54.4378V55.682C475.686 56.1507 476.079 56.5343 476.56 56.5343H482.068C482.548 56.5343 482.941 56.1506 482.941 55.682V54.4378C482.941 53.9689 482.548 53.5853 482.068 53.5853H476.56ZM470.661 23.6278V51.741H488.387V23.6278H470.661Z" fill="#1B6B60"/>
<path fill-rule="evenodd" clip-rule="evenodd" d="M693.213 24.8018C691.086 26.7026 689.748 29.4476 689.748 32.5H689.751C689.751 33.9552 690.06 35.3939 690.657 36.7209C691.255 38.0479 692.127 39.2331 693.216 40.1982C693.698 40.6257 694.018 41.2064 694.122 41.8425C694.226 42.4785 694.108 43.131 693.787 43.6898L689.034 51.8785C688.38 53.0033 687.047 53.5108 685.818 53.1204C684.798 52.7959 683.709 52.6202 682.58 52.6202C677.524 52.6202 673.3 56.1314 672.283 60.8162C672.005 62.0923 670.887 63 669.594 63H660.166C659.536 62.9982 658.925 62.7804 658.436 62.3831C657.946 61.9857 657.608 61.4327 657.477 60.8162C656.46 56.1338 652.236 52.6202 647.18 52.6202C646.082 52.6192 644.989 52.7879 643.942 53.1204C642.713 53.5133 641.378 53.0009 640.726 51.8785L635.973 43.6874C635.305 42.5382 635.556 41.079 636.544 40.1982C637.633 39.2331 638.505 38.0479 639.103 36.7209C639.7 35.3939 640.009 33.9552 640.009 32.5C640.009 31.0448 639.7 29.6061 639.103 28.2791C638.505 26.9521 637.633 25.7669 636.544 24.8018C636.062 24.3743 635.742 23.7936 635.638 23.1575C635.534 22.5215 635.652 21.869 635.973 21.3102L640.726 13.1215C641.04 12.5786 641.53 12.1593 642.115 11.9334C642.7 11.7075 643.345 11.6885 643.942 11.8796C644.989 12.2121 646.082 12.3808 647.18 12.3798C652.236 12.3798 656.46 8.8686 657.477 4.1838C657.755 2.90768 658.873 2 660.166 2H669.594C670.224 2.00184 670.835 2.21957 671.324 2.61693C671.814 3.01429 672.152 3.56728 672.283 4.1838C673.3 8.86616 677.524 12.3798 682.58 12.3798C683.678 12.3808 684.771 12.2121 685.818 11.8796C686.415 11.6885 687.06 11.7075 687.645 11.9334C688.23 12.1593 688.72 12.5786 689.034 13.1215L693.787 21.3126C694.455 22.4618 694.204 23.921 693.213 24.8018ZM676.76 49.07C679.618 47.9015 682.767 47.6392 685.779 48.3185L689.28 42.3649C687.1 40.1031 685.731 37.1826 685.387 34.06C685.043 30.9374 685.744 27.7889 687.379 25.1068C687.922 24.2161 688.559 23.3866 689.28 22.6326L685.776 16.6839C682.764 17.3633 679.616 17.1009 676.758 15.9324C675.004 15.2102 673.427 14.1756 672.076 12.858C670.366 11.2024 669.094 9.14832 668.374 6.88H661.381C660.663 9.1487 659.393 11.2036 657.684 12.8604C656.334 14.1741 654.743 15.2162 653 15.93C650.142 17.0983 646.994 17.3607 643.981 16.6815L640.48 22.6351C642.66 24.8969 644.029 27.8174 644.373 30.94C644.717 34.0626 644.016 37.2111 642.381 39.8932C641.839 40.7838 641.2 41.6134 640.48 42.3674L643.984 48.3161C646.996 47.6366 650.144 47.8989 653.002 49.0676C654.745 49.7831 656.335 50.8268 657.684 52.142C659.394 53.7976 660.666 55.8517 661.386 58.12H668.379C669.097 55.8513 670.367 53.7964 672.076 52.1396C673.426 50.8259 675.017 49.7838 676.76 49.07ZM660.212 22.4486C661.692 21.8355 663.278 21.5199 664.88 21.5199C668.116 21.5199 671.219 22.8053 673.507 25.0932C675.795 27.3812 677.08 30.4843 677.08 33.7199C677.08 36.9556 675.795 40.0587 673.507 42.3466C671.219 44.6346 668.116 45.9199 664.88 45.9199C663.278 45.9199 661.692 45.6044 660.212 44.9912C658.731 44.3781 657.387 43.4795 656.254 42.3466C655.121 41.2137 654.222 39.8688 653.609 38.3887C652.996 36.9085 652.68 35.322 652.68 33.7199C652.68 32.1178 652.996 30.5313 653.609 29.0512C654.222 27.571 655.121 26.2261 656.254 25.0932C657.387 23.9603 658.731 23.0617 660.212 22.4486ZM664.88 41.8524C667.052 41.8524 669.094 41.0082 670.631 39.471C672.169 37.9338 673.013 35.8915 673.013 33.7199C673.013 31.5483 672.169 29.506 670.631 27.9688C669.094 26.4316 667.052 25.5874 664.88 25.5874C663.812 25.5845 662.753 25.7934 661.766 26.2022C660.779 26.6109 659.883 27.2114 659.129 27.9688C657.592 29.506 656.748 31.5483 656.748 33.7199C656.745 34.7884 656.954 35.8468 657.363 36.8339C657.771 37.8211 658.372 38.7174 659.129 39.471C660.666 41.0082 662.709 41.8524 664.88 41.8524Z" fill="#1B6B60"/>
<path d="M1089.04 5.00222L1089.08 5.00881L1112.47 10.5518C1112.89 10.6521 1113.27 10.8861 1113.55 11.2182C1113.82 11.5503 1113.98 11.9625 1114 12.392L1114 12.4724V46.6095C1114 46.9499 1113.91 47.2845 1113.74 47.5809C1113.57 47.8773 1113.33 48.1253 1113.03 48.301L1112.96 48.3422L1089.96 60.7579C1089.68 60.9096 1089.36 60.9925 1089.04 60.9995C1088.72 61.0066 1088.41 60.9376 1088.12 60.7983L1088.04 60.7579L1065.04 48.3422C1064.74 48.1789 1064.48 47.9413 1064.3 47.6522C1064.12 47.3632 1064.02 47.0326 1064 46.6925L1064 46.6095V12.4724C1064 12.0424 1064.14 11.6243 1064.4 11.2813C1064.67 10.9384 1065.04 10.6894 1065.45 10.5722L1065.53 10.5521L1088.92 5.00914C1088.96 5.00006 1089 4.99772 1089.04 5.00222ZM1089 9.72953L1068.67 14.5487V45.048L1089 56.0243L1109.33 45.0483V14.5487L1089 9.72985V9.72953ZM1091.44 26.0855V32.2005H1099.18V35.1556H1091.44V41.2414H1101.34V44.2258H1076.39V41.2414H1080.6V30.2987H1083.65V41.2414H1088.33V26.0855H1091.44ZM1087.92 18.1568H1090.17C1093.72 21.9874 1097.97 25.1163 1102.7 27.3764L1103 27.5193L1101.31 30.5037C1096.51 28.0459 1092.42 24.8568 1089.04 20.9069C1086 24.5197 1081.98 27.6829 1076.97 30.3691L1076.66 30.533L1075 27.5486C1080.08 25.0849 1084.3 22.032 1087.7 18.3899L1087.92 18.1568H1090.17H1087.92Z" fill="#1B6B60"/>
<path fill-rule="evenodd" clip-rule="evenodd" d="M243.578 33.9377C243.234 33.9377 242.89 33.8654 242.569 33.721L214.771 21.213C213.888 20.8156 213.32 19.9372 213.32 18.9689C213.32 18.0005 213.888 17.1221 214.771 16.7246L242.568 4.21669C243.211 3.92777 243.946 3.92777 244.588 4.21669L272.385 16.7246C273.268 17.1221 273.836 18.0004 273.836 18.9689C273.836 19.9372 273.268 20.8156 272.385 21.213L244.588 33.721C244.267 33.8654 243.923 33.9377 243.578 33.9377ZM221.778 18.9689L243.578 28.7782L265.378 18.9689L243.578 9.1594L221.778 18.9689ZM243.578 47.4686C243.234 47.4686 242.89 47.3964 242.568 47.2519L214.771 34.7439C213.888 34.3466 213.32 33.4682 213.32 32.4998C213.32 31.5314 213.888 30.653 214.771 30.2557L222.585 26.7398C223.824 26.182 225.281 26.7348 225.839 27.9742C226.397 29.2136 225.844 30.6705 224.605 31.2282L221.778 32.4999L243.578 42.3091L265.378 32.4998L262.956 31.4101C261.717 30.8525 261.164 29.3956 261.722 28.1562C262.28 26.9167 263.737 26.3641 264.976 26.9218L272.385 30.2557C273.268 30.653 273.836 31.5314 273.836 32.4998C273.836 33.4682 273.268 34.3466 272.385 34.7439L244.588 47.2519C244.267 47.3964 243.923 47.4686 243.578 47.4686ZM242.568 60.7834C242.89 60.9279 243.234 61.0001 243.578 61.0001C243.923 61.0001 244.267 60.9279 244.588 60.7834L272.385 48.2755C273.268 47.8781 273.836 46.9996 273.836 46.0313C273.836 45.0629 273.268 44.1845 272.385 43.7871L264.976 40.4532C263.737 39.8956 262.28 40.448 261.722 41.6876C261.164 42.927 261.717 44.3837 262.956 44.9416L265.378 46.0313L243.578 55.8406L221.778 46.0313L224.605 44.7596C225.844 44.2019 226.397 42.7449 225.839 41.5055C225.281 40.2661 223.824 39.7134 222.585 40.2711L214.771 43.7871C213.888 44.1845 213.32 45.0629 213.32 46.0313C213.32 46.9997 213.888 47.8781 214.771 48.2755L242.568 60.7834Z" fill="#1B6B60"/>
<path opacity="0.3" d="M126.453 48.138H129.963V42.495H135.39V39.12H129.963V33.45H126.453V39.12H121.053V42.495H126.453V48.138Z" fill="#1B6B60"/>
<path opacity="0.3" d="M340.453 48.138H343.963V42.495H349.39V39.12H343.963V33.45H340.453V39.12H335.053V42.495H340.453V48.138Z" fill="#1B6B60"/>
<path opacity="0.3" d="M557.453 48.138H560.963V42.495H566.39V39.12H560.963V33.45H557.453V39.12H552.053V42.495H557.453V48.138Z" fill="#1B6B60"/>
<path opacity="0.3" d="M771.453 48.138H774.963V42.495H780.39V39.12H774.963V33.45H771.453V39.12H766.053V42.495H771.453V48.138Z" fill="#1B6B60"/>
<path opacity="0.3" d="M985.453 48.138H988.963V42.495H994.39V39.12H988.963V33.45H985.453V39.12H980.053V42.495H985.453V48.138Z" fill="#1B6B60"/>
</svg>
